<?xml version="1.0" encoding="UTF-8"?>
<!DOCTYPE svg PUBLIC "-//W3C//DTD SVG 1.1//EN" "http://www.w3.org/Graphics/SVG/1.1/DTD/svg11.dtd">
<svg version="1.1" xmlns="http://www.w3.org/2000/svg" xmlns:xlink="http://www.w3.org/1999/xlink" x="0" y="0" width="365.779" height="102.215" viewBox="0, 0, 365.779, 102.215">
  <defs>
    <linearGradient id="Gradient_1" gradientUnits="userSpaceOnUse" x1="360.031" y1="246.649" x2="391.04" y2="338.514">
      <stop offset="0" stop-color="#242825"/>
      <stop offset="1" stop-color="#1B201C"/>
    </linearGradient>
    <clipPath id="Clip_1">
      <path d="M551.425,244.974 C553.358,244.974 554.925,246.541 554.925,248.474 L554.925,336.689 C554.925,338.622 553.358,340.189 551.425,340.189 L199.646,340.189 C197.713,340.189 196.146,338.622 196.146,336.689 L196.146,248.474 C196.146,246.541 197.713,244.974 199.646,244.974 L551.425,244.974 z"/>
    </clipPath>
    <filter id="InnerShadow_2">
      <feGaussianBlur in="SourceAlpha" stdDeviation="0"/>
      <feOffset dx="0" dy="0" result="offsetblur"/>
      <feFlood flood-color="#000000"/>
      <feComposite in2="offsetblur" operator="in"/>
    </filter>
    <linearGradient id="Gradient_2" gradientUnits="userSpaceOnUse" x1="327.387" y1="293.245" x2="423.32" y2="293.245">
      <stop offset="0" stop-color="#2D342F"/>
      <stop offset="0.156" stop-color="#1C211E"/>
      <stop offset="0.839" stop-color="#1C211E"/>
      <stop offset="0.983" stop-color="#151515"/>
    </linearGradient>
    <linearGradient id="Gradient_3" gradientUnits="userSpaceOnUse" x1="464.48" y1="296.982" x2="464.48" y2="316.677">
      <stop offset="0" stop-color="#2D2F2C"/>
      <stop offset="1" stop-color="#161A17"/>
    </linearGradient>
    <clipPath id="Clip_3">
      <path d="M487.575,295.482 C489.508,295.482 491.075,297.049 491.075,298.982 L491.075,314.677 C491.075,316.61 489.508,318.177 487.575,318.177 L441.385,318.177 C439.452,318.177 437.885,316.61 437.885,314.677 L437.885,298.982 C437.885,297.049 439.452,295.482 441.385,295.482 L487.575,295.482 z"/>
    </clipPath>
    <filter id="InnerShadow_4">
      <feGaussianBlur in="SourceAlpha" stdDeviation="2"/>
      <feOffset dx="0" dy="0" result="offsetblur"/>
      <feFlood flood-color="#000000"/>
      <feComposite in2="offsetblur" operator="in"/>
    </filter>
    <linearGradient id="Gradient_4" gradientUnits="userSpaceOnUse" x1="375.782" y1="254.233" x2="375.782" y2="289.175">
      <stop offset="0.724" stop-color="#000000"/>
      <stop offset="0.984" stop-color="#1C1C1C"/>
    </linearGradient>
  </defs>
  <g id="Layer_2" transform="translate(-192.146, -240.974)">
    <g>
      <path d="M199.646,246.474 L551.425,246.474 C552.53,246.474 553.425,247.369 553.425,248.474 L553.425,336.689 C553.425,337.794 552.53,338.689 551.425,338.689 L199.646,338.689 C198.541,338.689 197.646,337.794 197.646,336.689 L197.646,248.474 C197.646,247.369 198.541,246.474 199.646,246.474" fill="url(#Gradient_1)"/>
      <path d="M199.646,246.474 L551.425,246.474 C552.53,246.474 553.425,247.369 553.425,248.474 L553.425,336.689 C553.425,337.794 552.53,338.689 551.425,338.689 L199.646,338.689 C198.541,338.689 197.646,337.794 197.646,336.689 L197.646,248.474 C197.646,247.369 198.541,246.474 199.646,246.474" fill-opacity="0" stroke="#000000" stroke-width="3"/>
      <path d="M195.146,243.974 L555.925,243.974 L555.925,341.189 L195.146,341.189 z M551.425,244.974 L199.646,244.974 C197.713,244.974 196.146,246.541 196.146,248.474 L196.146,336.689 C196.146,338.622 197.713,340.189 199.646,340.189 L551.425,340.189 C553.358,340.189 554.925,338.622 554.925,336.689 L554.925,248.474 C554.925,246.541 553.358,244.974 551.425,244.974 z" clip-path="url(#Clip_1)" filter="url(#InnerShadow_2)" fill="rgba(0,0,0,1)"/>
    </g>
    <path d="M329.615,283.019 L421.091,283.019 C422.322,283.019 423.32,283.914 423.32,285.019 L423.32,301.47 C423.32,302.575 422.322,303.47 421.091,303.47 L329.615,303.47 C328.384,303.47 327.387,302.575 327.387,301.47 L327.387,285.019 C327.387,283.914 328.384,283.019 329.615,283.019 z" fill="url(#Gradient_2)"/>
    <g>
      <path d="M284.779,306.194 L303.015,306.194 C304.12,306.194 305.015,307.089 305.015,308.194 L305.015,312.135 C305.015,313.24 304.12,314.135 303.015,314.135 L284.779,314.135 C283.674,314.135 282.779,313.24 282.779,312.135 L282.779,308.194 C282.779,307.089 283.674,306.194 284.779,306.194 z" fill="#0A3500"/>
      <path d="M284.779,306.194 L303.015,306.194 C304.12,306.194 305.015,307.089 305.015,308.194 L305.015,312.135 C305.015,313.24 304.12,314.135 303.015,314.135 L284.779,314.135 C283.674,314.135 282.779,313.24 282.779,312.135 L282.779,308.194 C282.779,307.089 283.674,306.194 284.779,306.194 z" fill-opacity="0" stroke="#000000" stroke-width="3"/>
    </g>
    <g>
      <path d="M441.385,296.982 L487.575,296.982 C488.68,296.982 489.575,297.877 489.575,298.982 L489.575,314.677 C489.575,315.781 488.68,316.677 487.575,316.677 L441.385,316.677 C440.281,316.677 439.385,315.781 439.385,314.677 L439.385,298.982 C439.385,297.877 440.281,296.982 441.385,296.982 z" fill="url(#Gradient_3)"/>
      <path d="M441.385,296.982 L487.575,296.982 C488.68,296.982 489.575,297.877 489.575,298.982 L489.575,314.677 C489.575,315.781 488.68,316.677 487.575,316.677 L441.385,316.677 C440.281,316.677 439.385,315.781 439.385,314.677 L439.385,298.982 C439.385,297.877 440.281,296.982 441.385,296.982 z" fill-opacity="0" stroke="#000000" stroke-width="3"/>
      <path d="M432.885,290.482 L496.075,290.482 L496.075,323.177 L432.885,323.177 z M487.575,295.482 L441.385,295.482 C439.452,295.482 437.885,297.049 437.885,298.982 L437.885,314.677 C437.885,316.61 439.452,318.177 441.385,318.177 L487.575,318.177 C489.508,318.177 491.075,316.61 491.075,314.677 L491.075,298.982 C491.075,297.049 489.508,295.482 487.575,295.482 z" clip-path="url(#Clip_3)" filter="url(#InnerShadow_4)" fill="rgba(0,0,0,0.75)"/>
    </g>
    <path d="M228.164,289.175 L523.399,289.175 C524.504,289.175 525.399,288.28 525.399,287.175 L525.399,264.81 C525.399,263.705 524.504,262.81 523.399,262.81 L422.795,262.81 L422.795,256.233 C422.795,255.128 421.9,254.233 420.795,254.233 L328.862,254.233 C327.757,254.233 326.862,255.128 326.862,256.233 L326.862,262.81 L228.164,262.81 C227.059,262.81 226.164,263.705 226.164,264.81 L226.164,287.175 C226.164,288.28 227.059,289.175 228.164,289.175" fill="url(#Gradient_4)"/>
  </g>
</svg>
